<?xml version="1.0" standalone="yes"?>

<svg version="1.1" viewBox="0.0 0.0 429.2808398950131 265.28608923884514" fill="none" stroke="none" stroke-linecap="square" stroke-miterlimit="10" xmlns="http://www.w3.org/2000/svg" xmlns:xlink="http://www.w3.org/1999/xlink"><clipPath id="p.0"><path d="m0 0l429.28085 0l0 265.2861l-429.28085 0l0 -265.2861z" clip-rule="nonzero"></path></clipPath><g clip-path="url(#p.0)"><path fill="#000000" fill-opacity="0.0" d="m0 0l429.28085 0l0 265.2861l-429.28085 0z" fill-rule="evenodd"></path><path fill="#000000" fill-opacity="0.0" d="m1.299227 8.142792l117.29134 -0.031496048l0 118.70866l-117.29134 0.03150177z" fill-rule="evenodd"></path><path fill="#679334" d="m90.736725 74.89873q0 1.921875 -1.15625 3.4690628q-1.140625 1.5471802 -3.203125 2.2977371q0.46875 1.3592453 0.46875 2.9998703q0 6.609375 -4.5 11.235588q-4.5 4.6105804 -12.09375 5.7845q-7.59375 1.173912 -13.171875 1.1754074q-9.328125 0.0025024414 -15.84375 -2.6363678q-6.515625 -2.6545029 -9.140625 -6.700676q-2.624998 -4.0617905 -2.859373 -9.030479q-1.359375 -0.9371338 -1.359375 -3.9371338q0 -2.109375 0.84375 -3.468979q0.84375 -1.3596039 2.390625 -2.4381409l-0.234375 -0.79681396q-1.359375 -0.6558838 -2.09375 -1.9681854q-0.71875 -1.3123093 -0.71875 -2.8123093q0 -2.25 1.78125 -4.0317307q-2.484375 -2.2493286 -2.484375 -6.7962036q0 -3.46875 1.1875 -6.9534454q1.203125 -3.5003242 3.453123 -6.188427q2.25 -2.7037277 6.375 -5.048588q4.125 -2.3448563 8.96875 -3.533657q4.859375 -1.2044296 9.875 -1.2057762q6.65625 -0.001789093 13.3125 1.8714256q6.65625 1.8732109 10.6875 4.7158775q4.03125 2.8270454 5.71875 6.8890915q1.6875 4.046421 1.6875 8.405796q0 4.265625 -2.8125 7.5007553l-0.515625 1.7813911q0.375 1.0780258 0.609375 2.3904572q1.640625 0.8901901 3.234375 2.9053802q1.59375 2.0151978 1.59375 4.1245728zm-33.65625 23.587166q5.0625 -0.0013580322 11.40625 -0.9093094q6.359375 -0.923584 10.015625 -3.7526932q3.65625 -2.8447342 4.5 -6.7355804l0.09375 -0.32815552q-1.125 0.7971802 -2.90625 0.7976608q-1.921875 5.1116943E-4 -2.46875 0.18816376q-0.53125 0.18763733 -0.953125 0.70337677l-1.59375 1.8754272q-1.3125 1.594101 -2.984375 2.328926q-1.65625 0.71920013 -4.0 0.71982574q-2.484375 6.713867E-4 -4.21875 -1.7332382q-1.828125 4.8828125E-4 -2.859375 0.75076294q-1.40625 1.0785065 -2.484375 1.5006714q-1.078125 0.42216492 -2.4375 0.4225235q-2.578125 6.942749E-4 -4.359375 -1.1707001q-1.453125 -0.8902359 -2.28125 -1.5618896q-0.8125 -0.68727875 -1.703125 -0.68704224q-0.515625 1.373291E-4 -1.03125 0.28152466q-2.671875 1.4538422 -4.59375 1.454361q-2.296875 6.1798096E-4 -4.125 -1.2801437q-1.828125 -1.2963791 -2.15625 -3.6400452q-0.1875 -1.0780716 -0.375 -1.4999008q-0.234375 -0.32805634 -0.828125 -0.34352875q-0.578125 -0.031089783 -1.890625 -0.40573883q0.890625 4.6872635 3.859375 7.2958374q2.984375 2.592949 8.09375 4.1697006q5.109375 1.5611343 12.28125 1.5592041zm0.140625 -60.796913q-8.15625 0.049064636 -14.765625 3.0508385q-6.609375 3.0017738 -9.1875 7.346218q-2.578123 4.3288155 -2.578123 9.203819q0 2.203125 0.796875 3.5154076q0.7968731 1.3122864 3.328123 2.8897324q2.53125 1.5618248 5.484375 2.5297813q2.953125 0.95233154 7.046875 1.5449829q4.109375 0.57701874 8.984375 0.5757065q8.953125 -0.0024032593 15.578125 -1.3635559q6.640625 -1.3611603 9.984375 -4.0808067q3.359375 -2.7196503 3.359375 -6.6571503q0 -2.953125 -0.984375 -6.046612q-0.984375 -3.0934868 -3.359375 -5.2647247q-2.359375 -2.1868668 -6.28125 -3.795189q-3.90625 -1.623951 -8.390625 -2.5289955q-4.46875 -0.9206734 -9.015625 -0.91945267zm25.453125 32.47754q-3.0 3.5633087 -8.796875 5.658615q-5.78125 2.0796738 -15.53125 2.0822906q-7.078125 0.0019073486 -12.609375 -0.88723755q-1.546875 0.42229462 -2.0625 0.42243195q-1.453125 3.8909912E-4 -2.71875 -0.6242676q-1.265625 -0.6402893 -4.171875 -2.889511q-0.796875 -0.6091614 -2.25 -0.60876465l0.421875 1.0311356q1.21875 3.046547 4.875 5.1080627q3.65625 2.0615158 8.71875 2.5289078q5.0625 0.46739197 9.890625 0.51297q7.546875 -0.0020217896 12.90625 -1.4565887q5.375 -1.454567 8.09375 -4.3771744q2.71875 -2.9382324 3.234375 -6.5008698zm-50.25 -3.9708786q-1.0312481 1.0315247 -1.0312481 1.9690247q0 1.78125 1.7343731 1.7807846q1.734375 -4.6539307E-4 2.671875 0.13990784q0.9375 0.14037323 1.875 0.60887146l3.1875 2.0616455q1.828125 1.3120041 2.8125 1.3117447q0.75 -2.0599365E-4 2.34375 -0.79750824q2.859375 -1.3601379 5.015625 -1.3607178q2.296875 -6.1798096E-4 4.359375 1.4050751q0.515625 0.5154877 2.15625 0.51504517q0.890625 -2.3651123E-4 3.140625 -2.2508392l-4.359375 0.0949173q-13.40625 0.0036010742 -22.171875 -4.4471664l-1.734375 -1.0307846zm54.9375 8.703995q0 -1.265625 -1.640625 -2.9058075q-1.546875 6.562912 -8.46875 10.205399q-6.90625 3.626854 -18.8125 3.6300507q-8.296875 0.0022277832 -12.75 -0.8090744q-4.453125 -0.8269272 -7.640625 -2.7010727q-3.1875 -1.8741455 -4.828125 -4.404953l-0.75 -1.0779266q-0.7968731 0.7970886 -1.0312481 1.2971497q-0.234375 0.48444366 -0.234375 1.4219437q0 1.359375 0.9531231 2.0466156q0.96875 0.6716156 2.234375 0.7650299q2.015625 0.14008331 3.234375 1.1241302q1.21875 0.98404694 1.640625 3.7026825q0.1875 1.0780716 1.03125 1.5934753q0.84375 0.5153961 1.921875 0.5151062q0.9375 -2.5177002E-4 2.671875 -0.89134216q1.6875 -0.89107513 2.859375 -0.89139557q1.78125 -4.7302246E-4 3.65625 1.2177734q2.296875 1.640007 2.734375 1.827385q0.453125 0.18738556 0.875 0.28102112q0.421875 0.09363556 0.984375 0.09348297q1.40625 -3.7384033E-4 3.0 -1.2664337q1.40625 -1.0316238 4.5 -1.3605804q1.921875 -5.187988E-4 3.140625 1.1710281l0.46875 0.37487793l1.078125 0.14033508q3.0 -8.087158E-4 4.734375 -2.157524l1.21875 -1.5003204q0.890625 -1.0783691 2.078125 -1.6099396q1.203125 -0.54719543 3.96875 -0.5479355q0.796875 -2.1362305E-4 1.03125 -0.10965729q0.234375 -0.12506104 0.5625 -0.78139496l0.375 -1.1719818q0.515625 -3.0938873 1.96875 -4.0786514l1.734375 -0.8442154q0.703125 -0.32831573 1.09375 -0.98467255q0.40625 -0.6563568 0.40625 -1.3126068zm-28.921875 -33.085983q0 0.796875 -0.828125 1.1720963q-0.8125 0.37521744 -1.609375 0.37543488q-1.921875 5.1498413E-4 -1.921875 -1.35886q0 -0.9375 0.8125 -1.3127174q0.828125 -0.37522507 1.625 -0.3754387q0.75 -2.0217896E-4 1.328125 0.45277023q0.59375 0.43733978 0.59375 1.0467148zm-1.171875 6.1878166q0 -0.796875 0.75 -1.1252022q0.75 -0.32832718 1.453125 -0.3285179q0.890625 -2.3651123E-4 1.546875 0.468338q0.65625 0.4685707 0.65625 1.1248207q0 0.46875 -0.5 0.9376373q-0.484375 0.4688797 -1.703125 0.46920395q-2.203125 5.950928E-4 -2.203125 -1.5462799zm9.515625 -4.736931q0 0.703125 -0.703125 1.0158119q-0.703125 0.29706573 -1.40625 0.29725266q-0.796875 2.1362305E-4 -1.546875 -0.2964592q-0.75 -0.31229782 -0.75 -1.0622978q0 -0.84375 0.671875 -1.2345543q0.6875 -0.40643692 1.484375 -0.40665054q0.890625 -2.4032593E-4 1.5625 0.49958038q0.6875 0.4841919 0.6875 1.1873169zm-15.328125 5.441616q-0.515625 1.373291E-4 -1.203125 -0.28092957q-0.671875 -0.2810669 -0.671875 -1.0779419q0 -0.796875 0.671875 -1.2189331q0.6875 -0.4220581 1.53125 -0.42228317q0.796875 -2.1743774E-4 1.46875 0.40585327q0.6875 0.3904419 0.6875 0.9998169q0 0.75 -0.828125 1.1720963q-0.8125 0.42209244 -1.65625 0.42232132zm16.171875 1.1206551q-0.65625 1.7929077E-4 -1.34375 -0.5308876q-0.671875 -0.5466957 -0.671875 -1.3435707q0 -1.3125 2.25 -1.3131027q0.703125 -1.9073486E-4 1.234375 0.46841812q0.546875 0.46860123 0.546875 1.0779762q0 0.609375 -0.65625 1.1251793q-0.65625 0.5158005 -1.359375 0.5159874zm8.0625 -4.361538q0 0.421875 -0.3125 0.9219589q-0.296875 0.4844551 -0.8125 0.48459244q-0.890625 2.4032593E-4 -1.71875 -0.5776634q-0.8125 -0.59353256 -0.8125 -1.2029076q0 -1.171875 1.453125 -1.1722641q0.84375 -2.2888184E-4 1.515625 0.40584183q0.6875 0.3904419 0.6875 1.1404419zm-9.703125 6.5182304q0.65625 -1.7547607E-4 1.421875 0.35899353q0.78125 0.3435402 0.78125 1.1872902q0 0.515625 -0.359375 0.96884537q-0.34375 0.43759155 -0.859375 0.4377327q-0.84375 2.2506714E-4 -1.59375 -0.57769775q-0.75 -0.5935478 -0.84375 -1.2497749q0 -1.125 1.453125 -1.1253891zm-12.796875 2.534687q0 -0.84375 0.8125 -1.3283463q0.828125 -0.50022125 1.671875 -0.5004463q0.609375 -1.6403198E-4 1.03125 0.42159653q0.421875 0.42176056 0.421875 1.0311356q0 0.703125 -0.6875 1.0783119q-0.671875 0.3751793 -1.46875 0.3753929q-0.65625 1.7547607E-4 -1.21875 -0.28092194q-0.5625 -0.2810974 -0.5625 -0.7967224zm-8.90625 -6.278858q0.609375 -1.6403198E-4 1.078125 0.37471008q0.46875 0.37487411 0.46875 1.0779991q0 0.75 -0.6875 1.1095581q-0.671875 0.3439293 -1.46875 0.3441429q-1.78125 4.8065186E-4 -1.78125 -1.1245193q0 -0.890625 0.8125 -1.3283424q0.828125 -0.45335007 1.578125 -0.45354843zm3.984375 -6.657322q0.609375 -1.6403198E-4 1.046875 0.4059677q0.453125 0.39050293 0.453125 1.0467529q0 0.703125 -0.703125 1.0783157q-0.703125 0.37518692 -1.5 0.37540436q-1.734375 4.6539307E-4 -1.734375 -1.1245346q0 -0.796875 0.71875 -1.2814445q0.734375 -0.50019836 1.71875 -0.5004616z" fill-rule="nonzero"></path><path fill="#000000" fill-opacity="0.0" d="m142.26772 0l117.291336 0l0 134.96063l-117.291336 0z" fill-rule="evenodd"></path><path fill="#679334" d="m226.78334 76.78094l0.046875 0.234375q0.234375 1.078125 0.5625 2.09375q0.328125 1.0 0.328125 2.078125q0 3.234375 -4.03125 4.734375q-1.078125 0.515625 -1.296875 0.78125q-0.203125 0.25 -0.296875 0.671875q-0.09375 0.421875 -0.140625 0.890625q-0.328125 2.484375 -1.96875 3.921875q-1.640625 1.421875 -4.171875 1.421875l-2.015625 -0.046875q-2.0625 0 -3.1875 1.875q-1.546875 2.578125 -4.40625 2.578125q-2.109375 0 -4.03125 -1.359375q-1.96875 -1.3125 -2.625 -1.3125q-0.84375 0 -2.25 1.265625q-0.65625 0.609375 -1.71875 1.0625q-1.046875 0.4375 -2.171875 0.4375q-3.0 0 -5.109375 -2.765625l-0.703125 -1.171875q-0.984375 -2.0625 -3.703125 -2.0625q-4.78125 0 -7.3125 -2.0625q-2.53125 -2.0625 -2.53125 -5.671875q0 -2.4375 0.234375 -3.609375q-2.90625 -2.015625 -4.125 -3.859375q-1.21875 -1.859375 -1.21875 -4.015625q0 -2.8125 3.09375 -6.140625q0.609375 -0.65625 0.703125 -0.9375l-0.515625 -1.359375l-0.46875 -1.03125q-1.40625 -2.296875 -1.40625 -3.984375q0 -2.15625 1.5 -3.328125q1.5 -1.171875 4.40625 -2.34375l0.09375 -0.75l0 -1.359375q0 -3.796875 1.734375 -5.6875q1.734375 -1.90625 4.921875 -1.90625l2.109375 0.046875q0 -1.125 0.703125 -2.59375q0.703125 -1.484375 1.9375 -2.484375q1.25 -1.015625 3.078125 -1.015625q2.203125 0 4.875 1.59375l1.359375 0.84375q0.46875 -0.09375 1.078125 -0.5625q2.90625 -2.34375 5.625 -2.34375q1.3125 0 2.296875 0.5q0.984375 0.484375 1.75 1.3125q0.78125 0.8125 1.765625 2.828125l2.34375 -0.1875l0.28125 0q2.8125 0 4.5 1.40625q1.6875 1.40625 2.859375 4.5q0.515625 1.265625 1.28125 2.28125q0.78125 1.0 2.140625 1.609375l1.03125 0.515625q1.546875 0.796875 3.0 3.328125q1.453125 2.53125 1.453125 4.21875q0 0.890625 -0.9375 2.71875q-0.984375 1.875 -0.984375 2.953125q0 0.9375 0.46875 1.578125q0.46875 0.625 1.03125 1.265625q0.5625 0.625 1.03125 1.328125q0.46875 0.703125 0.46875 1.78125q0 2.109375 -2.015625 4.125q-0.75 0.75 -0.75 1.171875zm-3.28125 -8.90625q0 -0.9375 -1.546875 -2.109375q-1.640625 -1.21875 -1.96875 -1.734375q-0.328125 -0.515625 -0.328125 -1.3125q0 -1.078125 1.40625 -3.140625q1.40625 -2.0625 1.40625 -3.1875q0 -1.453125 -2.578125 -2.0625l-2.765625 -0.75q-1.21875 -0.28125 -1.71875 -1.1875q-0.484375 -0.921875 -0.484375 -2.703125l0.046875 -2.390625q0 -0.984375 -0.5625 -1.453125q-0.5625 -0.46875 -2.203125 -0.46875l-0.28125 0l-2.484375 0.140625q-1.640625 0 -2.25 -0.84375l-0.75 -1.21875q-0.703125 -1.40625 -1.296875 -1.96875q-0.578125 -0.5625 -1.375 -0.5625q-0.890625 0 -1.875 0.65625q-3.421875 2.296875 -4.96875 2.296875q-0.46875 0 -1.15625 -0.390625q-0.671875 -0.40625 -1.46875 -0.84375q-0.796875 -0.453125 -1.6875 -0.84375q-0.890625 -0.40625 -1.78125 -0.40625q-0.5625 0 -0.890625 0.234375q-0.9375 0.5625 -1.171875 1.546875q-0.234375 0.984375 -0.46875 1.953125q-0.234375 0.953125 -0.828125 1.65625q-0.578125 0.703125 -2.265625 0.703125l-2.203125 -0.046875q-1.921875 0 -2.5625 0.734375q-0.625 0.71875 -0.625 2.453125q0 3.421875 -0.546875 4.671875q-0.53125 1.234375 -2.03125 1.703125q-1.875 0.65625 -2.671875 1.15625q-0.796875 0.484375 -0.796875 1.375q0 0.75 0.46875 1.5q1.875 3.1875 1.875 4.828125q0 1.03125 -1.03125 2.484375q-2.765625 2.765625 -2.765625 4.5q0 1.078125 1.828125 2.015625q1.546875 0.84375 2.625 1.859375q1.078125 1.0 1.078125 2.453125l-0.234375 1.96875q-0.1875 1.078125 -0.1875 3.375q0 1.21875 2.0625 1.21875l5.203125 -0.09375q1.921875 0 3.09375 2.8125q1.125 2.8125 2.859375 2.8125q1.078125 0 3.0 -1.546875q1.875 -1.5 2.765625 -1.5q1.125 0 3.421875 1.453125q2.296875 1.453125 3.65625 1.453125q0.890625 0 1.171875 -0.46875l1.5 -2.203125q1.3125 -2.0625 3.328125 -2.0625l3.65625 0.328125q1.5 0 2.15625 -0.8125q0.65625 -0.828125 0.65625 -3.03125q0 -1.6875 0.671875 -2.34375q0.6875 -0.65625 2.234375 -1.03125q2.859375 -0.65625 2.859375 -2.0625q0 -0.703125 -0.703125 -2.4375q-0.703125 -1.6875 -0.703125 -2.390625q0 -0.5625 0.46875 -1.125q0.46875 -0.5625 1.6875 -1.78125q1.03125 -0.984375 1.03125 -1.828125zm-9.515625 0.046875q0 3.9375 -2.296875 7.6875q-2.296875 3.75 -6.140625 6.0q-3.84375 2.25 -9.703125 2.25q-6.375 0 -10.59375 -4.046875q-4.21875 -4.0625 -4.21875 -11.1875q0 -5.15625 2.90625 -9.796875q2.90625 -4.640625 7.609375 -7.046875q4.71875 -2.421875 10.625 -2.421875q2.765625 0 4.6875 0.46875q1.921875 0.46875 3.203125 1.453125q1.296875 0.984375 1.296875 1.875q0 0.5625 -0.65625 0.5625l-1.78125 -0.1875q-3.9375 -0.703125 -6.375 -0.703125q-4.03125 0 -7.828125 2.046875q-3.796875 2.03125 -6.03125 5.453125q-2.21875 3.421875 -2.21875 7.3125q0 4.96875 2.875 7.90625q2.890625 2.921875 7.71875 2.921875q4.40625 0 7.984375 -3.015625q3.59375 -3.03125 3.59375 -7.25q0 -2.953125 -1.8125 -4.75q-1.796875 -1.8125 -4.9375 -1.8125q-1.078125 0 -2.5625 0.59375q-1.46875 0.578125 -2.40625 1.546875q-0.9375 0.953125 -0.9375 2.078125q0 0.9375 0.71875 1.578125q0.734375 0.625 1.671875 0.625q0.796875 0 1.59375 -0.890625q0.796875 -0.84375 1.6875 -0.84375q0.9375 0 1.84375 0.875q0.921875 0.859375 0.921875 2.03125q0 1.921875 -2.140625 3.21875q-2.125 1.28125 -4.609375 1.28125q-2.765625 0 -4.78125 -1.40625q-2.015625 -1.40625 -2.015625 -4.734375q0 -4.921875 3.234375 -7.84375q3.234375 -2.9375 8.390625 -2.9375q1.921875 0 3.703125 0.59375q1.78125 0.578125 3.703125 1.703125q1.921875 1.125 3.0 3.65625q1.078125 2.53125 1.078125 5.15625z" fill-rule="nonzero"></path><path fill="#000000" fill-opacity="0.0" d="m286.83203 10.409449l135.05511 0l0 114.14173l-135.05511 0z" fill-rule="evenodd"></path><path fill="#679334" d="m377.72266 63.28094q0.09375 0.7499962 0.140625 1.5312462q0.046875 0.765625 0.046875 1.5625q0 2.578125 -0.421875 5.28125q-0.421875 2.6875 -1.078125 4.9375q-1.078125 3.65625 -3.03125 6.78125q-1.9375 3.109375 -4.5625 5.671875q-2.625 2.546875 -5.796875 4.5q-3.15625 1.9375 -6.625 3.25q-3.46875 1.3125 -7.171875 2.0q-3.703125 0.671875 -7.359375 0.671875q-5.34375 0 -10.53125 -1.40625q-5.171875 -1.40625 -9.71875 -4.359375q-2.953125 -1.921875 -5.1875 -4.59375q-2.21875 -2.671875 -3.703125 -5.8125q-1.46875 -3.140625 -2.21875 -6.625q-0.75 -3.5 -0.75 -7.015625q0 -7.171871 2.875 -13.328121q2.890625 -6.171875 8.234375 -11.046875q5.015625 -4.59375 10.6875 -6.53125q5.671875 -1.953125 11.859375 -1.953125q2.859375 0 5.78125 0.375q2.9375 0.375 5.984375 1.03125q4.359375 0.9375 8.203125 3.359375q3.84375 2.40625 6.796875 5.8125q2.953125 3.390625 4.921875 7.5q1.96875 4.09375 2.625 8.40625zm-3.1875 3.1874962q0 -4.312496 -1.6875 -8.437496q-1.6875 -4.125 -4.484375 -7.515625q-2.78125 -3.40625 -6.390625 -5.796875q-3.609375 -2.390625 -7.5 -3.234375q-5.953125 -1.3125 -11.0625 -1.3125q-12.0 0 -20.296875 7.59375q-4.96875 4.546875 -7.484375 9.96875q-2.5 5.40625 -2.5 11.874996q0 3.09375 0.609375 6.140625q0.609375 3.046875 1.875 5.84375q1.265625 2.78125 3.203125 5.171875q1.953125 2.390625 4.625 4.125q0.515625 0.375 1.078125 0.65625q0.5625 0.28125 1.125 0.609375q0 -0.140625 -0.03125 -0.28125q-0.015625 -0.140625 -0.015625 -0.28125q0 -0.984375 0.390625 -1.65625q0.40625 -0.6875 1.0625 -0.6875q0.65625 0 1.0 0.328125q0.359375 0.328125 0.546875 0.828125q0.1875 0.484375 0.28125 1.03125q0.09375 0.53125 0.234375 0.953125q0.1875 0.65625 0.515625 1.078125q0.328125 0.421875 0.75 0.75q1.03125 0.328125 2.0625 0.609375q1.03125 0.28125 2.109375 0.515625q-0.234375 -0.703125 -0.234375 -1.40625q0 -1.078125 0.515625 -1.609375q0.515625 -0.546875 1.171875 -0.546875q0.75 0 1.03125 0.546875q0.28125 0.53125 0.421875 1.234375q0.140625 0.703125 0.34375 1.40625q0.21875 0.703125 0.828125 0.984375q0.796875 0.09375 1.609375 0.140625q0.828125 0.046875 1.625 0.046875q1.453125 0 2.921875 -0.140625q1.484375 -0.140625 2.984375 -0.375q0.046875 -0.09375 0.046875 -0.28125q-0.046875 -0.421875 -0.328125 -0.890625q-0.28125 -0.46875 -0.65625 -0.9375q-0.375 -0.46875 -0.796875 -0.890625q-0.421875 -0.421875 -0.796875 -0.796875q-1.96875 -1.828125 -3.9375 -3.609375q-1.96875 -1.78125 -3.84375 -3.75q-1.359375 -1.453125 -2.796875 -2.921875q-1.421875 -1.484375 -3.15625 -2.84375q-0.609375 -0.46875 -1.15625 -0.9375q-0.53125 -0.46875 -1.046875 -1.03125q-0.375 -0.421875 -0.84375 -0.71875q-0.46875 -0.3125 -0.890625 -0.65625q-0.421875 -0.359375 -0.734375 -0.796875q-0.296875 -0.453125 -0.296875 -1.0625q0 -0.65625 0.25 -1.265625q0.265625 -0.609375 0.6875 -1.140625q0.421875 -0.546875 0.90625 -1.0625q0.5 -0.515625 0.96875 -0.984375q0.234375 -0.28125 0.421875 -0.65625q0.1875 -0.375 0.46875 -0.609375q0.375 -0.328125 0.75 -0.53125q0.375 -0.21875 0.75 -0.59375q1.171875 -1.171875 2.484375 -2.203125q1.3125 -1.0312462 2.34375 -2.3906212q0.9375 -1.21875 2.0625 -2.171875q1.125 -0.96875 2.34375 -1.90625q1.21875 -0.890625 2.21875 -1.9375q1.015625 -1.0625 2.28125 -1.8125q0.75 -0.46875 1.609375 -1.09375q0.875 -0.640625 1.734375 -1.21875q0.875 -0.59375 1.6875 -0.984375q0.828125 -0.40625 1.53125 -0.40625q0.796875 0 2.03125 0.65625q1.25 0.65625 2.234375 1.40625q1.125 0.890625 2.3125 1.71875q1.203125 0.8125 2.421875 1.703125q0.703125 0.515625 1.515625 0.9375q0.828125 0.421875 1.53125 0.984375q0.65625 0.515625 1.265625 1.125q0.609375 0.609375 1.3125 1.125q1.171875 0.890625 2.25 1.828125q1.078125 0.9375 2.15625 1.875q0.9375 0.8437462 1.75 1.5468712q0.828125 0.703125 1.71875 1.921875l0 -0.890625zm-31.3125 -19.265621q0.375 0 0.765625 -0.09375q0.40625 -0.09375 0.875 -0.09375q0.5625 0 0.84375 0.3125q0.28125 0.296875 0.28125 0.578125q0 0.421875 -0.328125 0.6875q-0.328125 0.25 -0.796875 0.4375q-0.46875 0.1875 -0.984375 0.265625q-0.515625 0.0625 -0.890625 0.0625q-1.03125 0 -1.828125 -0.515625q-0.796875 -0.515625 -1.171875 -1.6875q-0.09375 -0.234375 -0.171875 -0.390625q-0.0625 -0.171875 -0.0625 -0.359375q0 -0.375 0.28125 -0.53125q0.28125 -0.171875 0.5625 -0.171875q0.421875 0 0.71875 0.234375q0.3125 0.234375 0.5625 0.515625q0.265625 0.28125 0.5625 0.515625q0.3125 0.234375 0.78125 0.234375zm21.140625 3.328125q0.328125 0.09375 0.75 0.3125q0.421875 0.203125 0.421875 0.4375q0 0.28125 -0.546875 0.6875q-0.53125 0.390625 -1.375 0.390625q-1.359375 0 -2.015625 -0.421875q-0.65625 -0.421875 -1.21875 -0.984375l-0.09375 -0.140625q-0.1875 -0.1875 -0.328125 -0.484375q-0.140625 -0.3125 -0.140625 -0.640625q0 -0.28125 0.1875 -0.5625q0.1875 -0.28125 0.65625 -0.28125q0.703125 0 1.078125 0.515625q0.375 0.515625 0.9375 0.75q0.421875 0.234375 0.796875 0.3125q0.375 0.0625 0.890625 0.109375zm-33.0 0.421875q0.421875 0 0.65625 0.40625q0.234375 0.390625 0.234375 0.765625q0 0.375 -0.3125 0.921875q-0.296875 0.53125 -0.8125 1.03125q-0.515625 0.484375 -1.171875 0.8125q-0.65625 0.328125 -1.359375 0.328125q-0.234375 0 -0.65625 -0.046875q-0.421875 -0.046875 -0.828125 -0.15625q-0.390625 -0.125 -0.671875 -0.359375q-0.28125 -0.234375 -0.28125 -0.609375q0 -0.46875 0.234375 -0.671875q0.234375 -0.21875 0.578125 -0.328125q0.359375 -0.125 0.75 -0.140625q0.40625 -0.03125 0.734375 -0.125q0.421875 -0.09375 0.75 -0.390625q0.328125 -0.3125 0.65625 -0.609375q0.328125 -0.3125 0.671875 -0.5625q0.359375 -0.265625 0.828125 -0.265625zm-9.609375 15.984371q0 -0.328125 0.15625 -0.625q0.171875 -0.3125 0.171875 -0.734375q0 -0.5625 -0.359375 -1.1875q-0.34375 -0.6406212 -0.34375 -1.1562462q0 -0.28125 0.375 -0.625q0.375 -0.359375 1.171875 -0.359375q0.46875 0 0.765625 0.265625q0.3125 0.25 0.5 0.65625q0.1875 0.390625 0.25 0.8593712q0.078125 0.46875 0.078125 0.9375q0 0.421875 -0.078125 0.9375q-0.0625 0.515625 -0.25 1.015625q-0.1875 0.484375 -0.515625 0.8125q-0.328125 0.328125 -0.84375 0.328125q-0.375 0 -0.734375 -0.375q-0.34375 -0.375 -0.34375 -0.75zm3.421875 12.890625q0.1875 0 0.34375 -0.015625q0.171875 -0.03125 0.3125 -0.03125q0.328125 0 0.75 0.265625q0.421875 0.25 0.421875 0.90625q0 0.609375 -0.5625 0.9375q-0.5625 0.328125 -1.3125 0.328125q-0.28125 0 -0.921875 -0.109375q-0.625 -0.125 -1.265625 -0.375q-0.625 -0.265625 -1.125 -0.6875q-0.484375 -0.421875 -0.484375 -1.078125q0 -0.46875 0.25 -0.796875q0.265625 -0.328125 0.640625 -0.328125q0.328125 0 0.71875 0.171875q0.40625 0.15625 0.796875 0.328125q0.40625 0.15625 0.78125 0.328125q0.375 0.15625 0.65625 0.15625z" fill-rule="nonzero"></path><path fill="#679334" d="m38.53054 137.05623c6.3542976 0 11.554626 3.2745667 15.600994 9.823685c4.0613556 6.534134 6.0920334 14.454529 6.0920334 23.76117c0 9.291672 -1.5660973 16.95729 -4.698284 22.996857c-3.132187 6.024597 -7.688099 10.003525 -13.667728 11.936783c-5.709877 -5.350189 -9.996027 -8.025299 -12.858459 -8.025299c-2.8474426 0 -5.604965 1.3412933 -8.272573 4.0238953c-3.222107 -2.862442 -5.8522453 -6.451706 -7.890416 -10.767838c-2.0231838 -4.3311005 -3.0347757 -8.984436 -3.0347757 -13.959961c0 -11.974258 2.3229141 -21.595627 6.9687443 -28.86409c4.660816 -7.2834625 11.914305 -10.925201 21.760466 -10.925201zm3.7316513 -6.3393097c-7.1785583 0 -13.555332 1.4986572 -19.130327 4.4959717c-5.560009 2.982315 -9.951067 7.0062103 -13.173175 12.071655c-6.639041 10.041 -9.958561 21.782944 -9.958561 35.22589c0 8.737152 2.6451252 16.147995 7.9353766 22.232529c5.3052373 6.069565 12.146597 9.10434 20.524076 9.10434c2.113102 0 4.458498 -0.22480774 7.0361843 -0.67440796c6.1744576 7.1785736 11.052578 10.767838 14.634361 10.767838c8.197643 0 14.596901 -3.589264 19.19777 -10.767838c1.5735855 -2.3978424 2.360382 -4.6982727 2.360382 -6.901291c0 -0.92918396 -0.46458435 -1.393753 -1.393753 -1.393753c-0.91417694 0 -2.1505737 1.1539612 -3.7091675 3.4618835c-3.0422668 4.510956 -7.0062103 6.7664337 -11.891827 6.7664337c-1.6485176 0 -4.458496 -1.7534332 -8.429932 -5.2602844c7.837967 -3.9564362 13.937489 -10.123413 18.298573 -18.500885c4.3760757 -8.377472 6.56411 -17.67662 6.56411 -27.89746c0 -10.220825 -2.5776901 -18.231125 -7.733059 -24.03093c-5.1553726 -5.7997894 -12.199047 -8.699692 -21.131031 -8.699692z" fill-rule="evenodd"></path><path fill="#679334" d="m217.67589 138.85461c-1.3787537 0 -2.9448547 0.59947205 -4.6982727 1.7983856c-1.7534332 1.1989288 -2.6301422 2.6301422 -2.6301422 4.2936554c0 5.7997894 0.876709 8.699692 2.6301422 8.699692c2.6676025 0 4.7357483 -1.0340729 6.204422 -3.1022186c1.4836731 -2.08313 2.2255096 -4.548416 2.2255096 -7.395859c0 -2.8624268 -1.2438812 -4.2936554 -3.731659 -4.2936554zm-19.472 -4.5634003c0.7343445 0 1.1015167 1.476181 1.1015167 4.428528c0 7.3733826 -2.3903503 17.361908 -7.1710663 29.965591c1.2888336 -22.929413 3.312027 -34.39412 6.0695496 -34.39412zm53.57837 -1.6410217c0.8392334 0 1.2588654 2.023178 1.2588654 6.0695496c0 4.0463715 -1.1089935 9.08934 -3.327011 15.1289215c-2.2030182 6.024582 -4.638321 11.247391 -7.3059387 15.6684265c1.3787537 -11.1349945 2.9148712 -20.059494 4.608368 -26.773468c1.7084656 -6.728958 3.2970428 -10.09343 4.7657166 -10.09343zm-17.938889 37.968414c-0.28475952 1.6634979 -0.6069641 4.1512756 -0.9666443 7.4633026c-0.74931335 -1.1989288 -1.1239929 -2.6226501 -1.1239929 -4.271164c0 -1.6635132 0.69688416 -2.7275543 2.0906372 -3.1921387zm8.564804 4.428528c1.5585938 2.3079224 2.9373474 5.252777 4.1362915 8.834564c-0.6444397 0.089920044 -1.4537048 0.13487244 -2.427826 0.13487244c-0.95913696 0 -2.0381775 -0.17982483 -3.237091 -0.539505l0.6968689 -7.05867l0.8317566 -1.3712616zm44.053436 -8.429932c2.9373474 0 5.072937 1.843338 6.4067383 5.5300293c1.3487854 3.6866913 2.1130981 7.7855225 2.2929382 12.296463l-1.6635132 0c-3.1321716 0 -5.8747253 -1.0565491 -8.2276 -3.1696625c-2.3379211 -2.1280823 -3.5068665 -4.893097 -3.5068665 -8.295044c0 -1.5735931 0.4121399 -3.0272827 1.2363892 -4.361084c0.8242798 -1.3338013 1.978241 -2.000702 3.461914 -2.000702zm50.2742 0c2.937378 0 5.072937 1.843338 6.4067383 5.5300293c1.3487854 3.6866913 2.1130981 7.7855225 2.2929382 12.296463l-1.6635132 0c-3.1321716 0 -5.874695 -1.0565491 -8.2276 -3.1696625c-2.3378906 -2.1280823 -3.506836 -4.893097 -3.506836 -8.295044c0 -1.5735931 0.41210938 -3.0272827 1.2363892 -4.361084c0.82424927 -1.3338013 1.9782104 -2.000702 3.4618835 -2.000702zm-186.59718 2.360382c1.558609 0 3.3719788 0.66690063 5.4401245 2.000702c2.08313 1.3338013 3.5368195 2.7350464 4.361084 4.20372c-0.089920044 0.9291687 -0.20231628 2.2929382 -0.33720398 4.091324c-0.13487244 1.7834015 -0.254776 3.042282 -0.35966492 3.7766113c-5.8897247 15.196365 -10.355713 22.79454 -13.39798 22.79454c-2.4727783 0 -4.47348 -1.6560059 -6.0021057 -4.968033c-1.5136566 -3.3120422 -2.270462 -7.545746 -2.270462 -12.701111c0 -5.155365 1.4461975 -9.643845 4.3385925 -13.465408c2.9073944 -3.8215637 5.649933 -5.7323456 8.227615 -5.7323456zm233.13972 -0.56199646c4.5109253 0 8.100189 1.1989136 10.767822 3.5967712c0 0.9141693 -0.2322998 3.9039917 -0.6968689 8.969437c-5.3352356 16.575134 -10.070953 24.862686 -14.207245 24.862686c-2.0381775 0 -3.7241516 -1.6560059 -5.057953 -4.968033c-1.3338318 -3.3120422 -2.0007324 -7.568222 -2.0007324 -12.768539c0 -5.215317 1.243927 -9.8012085 3.731659 -13.75766c2.4877625 -3.9564362 4.975525 -5.934662 7.463318 -5.934662zm-106.91019 1.3937378c-1.0041199 2.2030334 -1.5061646 4.8256683 -1.5061646 7.867935c0 3.0272827 1.468689 5.8072815 4.406067 8.340027c2.9523315 2.5327148 6.549103 3.7990875 10.790314 3.7990875l4.9680176 -0.26976013l0 0c-0.3746643 4.88562 -1.67099 9.006912 -3.8890076 12.363892c-2.203003 3.3569946 -5.2827454 5.035492 -9.239197 5.035492c-3.9564514 0 -6.8563538 -2.000702 -8.6996765 -6.002121c-1.8433533 -4.001404 -2.7650452 -8.212631 -2.7650452 -12.633652c0 -9.216736 1.978241 -15.3836975 5.9346924 -18.5009zm50.2742 0c-1.0041199 2.2030334 -1.506134 4.8256683 -1.506134 7.867935c0 3.0272827 1.4686584 5.8072815 4.4060364 8.340027c2.9523315 2.5327148 6.549103 3.7990875 10.790314 3.7990875l4.968048 -0.26976013l0 0c-0.37469482 4.88562 -1.6710205 9.006912 -3.8890076 12.363892c-2.2030334 3.3569946 -5.282776 5.035492 -9.239227 5.035492c-3.9564514 0 -6.8563538 -2.000702 -8.6996765 -6.002121c-1.8433533 -4.001404 -2.7650146 -8.212631 -2.7650146 -12.633652c0 -9.216736 1.9782104 -15.3836975 5.934662 -18.5009zm-78.59175 19.332657c2.0381775 9.021896 3.057251 18.021317 3.057251 26.99826c0 8.976944 -0.92167664 17.077179 -2.7650146 24.30069c-1.8433533 7.2235107 -4.1437836 10.835266 -6.901306 10.835266c-1.5735931 0 -2.360382 -7.343399 -2.360382 -22.030228c0 -14.671829 0.41212463 -27.672653 1.2363892 -39.002487c2.3978577 0 4.9755554 -0.36717224 7.7330627 -1.1015015zm3.5967712 -62.291588c-2.5776978 0 -5.1553955 1.8208694 -7.7330627 5.462593c-2.5776978 3.6267395 -4.4884796 8.340012 -5.732361 14.139816c-1.243866 5.7997894 -2.5102234 12.708588 -3.7990875 20.726395c-2.2030182 0.5545044 -4.0388794 1.7758942 -5.507553 3.6641998c-1.4836731 1.8883057 -2.2254944 4.555908 -2.2254944 8.002823c0 2.979248 1.2371368 5.566635 3.7114258 7.762192l0 0c-2.5525818 5.4998016 -5.1250305 10.046005 -7.7173157 13.638596c-2.7575378 3.8215637 -4.9230804 5.777313 -6.4966736 5.8672333c-0.53952026 0 -0.80926514 -1.2438965 -0.80926514 -3.731659c0 -12.888428 0.59194946 -20.846283 1.7758942 -23.873566c0.6444397 -1.1989288 1.2214203 -3.132187 1.730957 -5.7997894c0.509552 -2.6825867 0.76431274 -4.4809723 0.76431274 -5.395157c0 -3.5068512 -0.6669159 -5.2602844 -2.000702 -5.2602844c-1.3338013 0 -3.1996307 1.0190887 -5.5974884 3.0572662c-2.3978424 2.023178 -3.829071 3.401947 -4.29364 4.1362762c-0.44960022 0.7343445 -0.9741211 5.732361 -1.5735779 14.994049c-0.117889404 1.8183746 -0.22419739 3.5344543 -0.31889343 5.1482544l0 0c-2.114624 4.2700653 -4.242798 7.8891754 -6.3845825 10.857376c-2.7575226 3.8215637 -4.9230804 5.777313 -6.4966583 5.8672333c-1.0041046 0 -1.5061493 -2.8249664 -1.5061493 -8.474899c0 -5.664917 0.13487244 -12.318939 0.40463257 -19.962082c7.2834625 -14.821686 10.925186 -28.219666 10.925186 -40.19391c0 -1.6635132 -0.3746643 -3.386963 -1.1239777 -5.1703644c-0.73435974 -1.7983856 -1.9257812 -2.6975708 -3.574295 -2.6975708c-7.0886383 0 -11.599594 7.313431 -13.532852 21.940292c-2.0719452 15.956665 -3.213852 28.929932 -3.4256897 38.919815l0 0c-1.9351501 3.8010712 -3.8816223 7.0582275 -5.8394012 9.771484c-2.7575226 3.8215637 -4.9230804 5.777313 -6.4966736 5.8672333c-0.55448914 0 -0.83174133 -1.2438965 -0.83174133 -3.731659c0 -12.888428 0.4196167 -20.38919 1.2588654 -22.502289c0.6444092 -1.1989288 1.213913 -3.1322021 1.7084656 -5.7998047c0.50953674 -2.6676025 0.76431274 -4.465988 0.76431274 -5.395157c0 -3.4918518 -0.66690063 -5.237793 -2.000702 -5.237793c-1.3338165 0 -2.9448547 0.7118683 -4.8331604 2.1355896c-1.8883057 1.4237213 -3.1996307 2.645111 -3.9339752 3.6641998c-3.6866913 -3.866516 -6.9987183 -5.7997894 -9.936081 -5.7997894c-6.818878 0 -12.326431 2.8549347 -16.52266 8.564819c-4.0127563 5.4797516 -6.099991 11.746292 -6.261688 18.799606l0 0c-1.8816681 3.6571655 -3.7775574 6.802185 -5.68766 9.435043c-2.7575226 3.8215637 -4.9155807 5.777313 -6.4741898 5.8672333c-0.55449677 0 -0.83174896 -1.2438965 -0.83174896 -3.731659c0 -13.338028 0.50953674 -21.295883 1.5286255 -23.873566c0.6444168 -1.1989288 1.213913 -3.132187 1.7084656 -5.7997894c0.5095444 -2.6825867 0.76431274 -4.4809723 0.76431274 -5.395157c0 -3.5068512 -0.666893 -5.2602844 -2.000702 -5.2602844c-1.3338089 0 -3.0122986 0.9666443 -5.0354767 2.8999023c-2.0231857 1.933258 -3.2895508 3.2745667 -3.7990952 4.0238953c-0.50953674 0.7343292 -1.1764297 5.7023773 -2.000702 14.904114c-2.8624344 7.2834625 -5.724869 12.768539 -8.587288 16.45523c-2.8474426 3.6717072 -5.3277206 5.507553 -7.440819 5.507553c-1.7534332 0 -2.6301422 -2.712555 -2.6301422 -8.137695c0 -5.4401093 0.6968765 -12.393875 2.090622 -20.861267c1.7384415 -4.0463715 2.6076584 -8.055267 2.6076584 -12.026703c0 -1.0940247 -0.14237213 -1.8283691 -0.4271164 -2.2030334c-0.26976013 -0.3746643 -0.93665314 -0.56199646 -2.000702 -0.56199646c-1.049057 0 -2.750023 0.89920044 -5.1029205 2.697586c-2.3378983 1.7983856 -3.9714355 3.1621552 -4.9005966 4.091324c-0.9141846 0.9141846 -1.3712692 6.2943573 -1.3712692 16.140518l-0.8317566 15.46611c0 4.61586 0.5994644 7.8904114 1.7983856 9.823685c1.1989212 1.933258 3.6117554 2.899887 7.2385025 2.899887c3.6417313 0 6.931282 -1.6335297 9.868637 -4.900589c2.9523544 -3.2820587 5.904709 -8.047775 8.857056 -14.297165l0 0c-0.26976013 4.046356 -0.4046402 7.7255554 -0.4046402 11.037582c0 3.312027 0.32221222 5.2902527 0.966629 5.934677c1.8283691 1.4836731 4.540924 2.2254944 8.137695 2.2254944c4.028404 0 8.808342 -5.069168 14.339813 -15.20752l0 0c0.5866394 4.2922516 1.8354797 7.63797 3.746521 10.03717c2.772522 3.4468994 5.994629 5.170349 9.666321 5.170349c3.6866913 0 6.706482 -1.4461975 9.059372 -4.3385925c2.35289 -2.9073944 4.720764 -7.3583984 7.1036224 -13.353012l0 0c-0.17984009 4.4210205 -0.26976013 7.942856 -0.26976013 10.565506c0 2.6226501 0.32221985 4.25618 0.966629 4.9006042c1.8433533 1.4836731 4.555908 2.2254944 8.137695 2.2254944c3.9746246 0 8.685638 -4.934738 14.133057 -14.80423l0 0c0.122406006 7.4660645 0.5679016 11.658966 1.3364716 12.578735c0.3746643 0.46458435 1.4087372 0.9516449 3.1022034 1.4611816c1.7084808 0.509552 3.581787 0.76431274 5.6199646 0.76431274c3.9876862 0 8.725922 -4.9972687 14.214737 -14.991852l0 0c-0.091918945 2.3606567 -0.13789368 4.315674 -0.13789368 5.8650513c0 3.9564514 0.3222046 6.2568817 0.966629 6.901306c1.8433533 1.4836731 4.5634003 2.2254944 8.1601715 2.2254944c4.566498 0 10.117279 -6.553299 16.652328 -19.659927l0 0c-1.0725555 11.303375 -1.608841 21.123749 -1.608841 29.461136c0 9.756241 0.13487244 16.799927 0.40463257 21.131027c0.19483948 2.7575226 0.9816284 5.657425 2.360382 8.699692c1.1089935 2.5776825 3.132187 3.8665314 6.0695496 3.8665314c3.4169312 0 6.2943573 -1.3862457 8.632248 -4.1587677c2.3529053 -2.7575226 4.083847 -6.3393097 5.1928406 -10.745346c1.9332733 -7.837967 2.8999023 -16.035599 2.8999023 -24.592926c0 -10.220825 -1.1989136 -19.887146 -3.5967712 -28.998978c3.7902222 -1.331955 7.1676025 -2.836731 10.132172 -4.514328l0 0c-0.49508667 2.168579 -0.74264526 4.385208 -0.74264526 6.6499176c0 6.114517 1.5211487 11.457214 4.5634155 16.028107c3.0422668 4.555908 7.4108276 6.8338623 13.105743 6.8338623c7.8379517 0 13.870026 -2.3903503 18.096252 -7.171051c4.2411804 -4.7957 6.684021 -11.060074 7.3283997 -18.793137c3.018219 -1.1838226 5.683502 -2.4700928 7.99588 -3.858841l0 0c-0.54364014 2.2675629 -0.8154602 4.587906 -0.8154602 6.9610596c0 6.114517 1.5211182 11.457214 4.563385 16.028107c3.0422668 4.555908 7.4108276 6.8338623 13.105743 6.8338623c7.837982 0 13.870056 -2.3903503 18.096252 -7.171051c4.241211 -4.7957 6.684021 -11.060074 7.32843 -18.793137c3.1004333 -1.2160645 5.8284607 -2.540268 8.184082 -3.9725952l0 0c-0.6691284 2.7050323 -1.0036926 5.5503693 -1.0036926 8.5359955c0 7.4483185 1.3562622 12.880936 4.068817 16.297882c2.712555 3.401947 6.024597 5.1029053 9.936096 5.1029053c3.9264526 0 7.178528 -1.7009583 9.756226 -5.1029053c2.5776672 -3.4169464 5.110382 -8.437439 7.598175 -15.061493l0 0c-0.284729 5.06546 -0.4270935 9.164291 -0.4270935 12.296463c0 3.1172028 0.36715698 5.050461 1.1015015 5.7998047c1.753418 1.3787537 4.196228 2.0681305 7.32843 2.0681305c5.06546 0 11.232422 -7.7330475 18.500885 -23.199173c2.6825867 -5.6199493 4.0238953 -9.7187805 4.0238953 -12.296463c0 -0.7343292 -0.29977417 -1.1015015 -0.89920044 -1.1015015c-0.5994568 0 -2.26297 3.0122986 -4.9905396 9.0368805c-2.7125244 6.024597 -5.447571 10.925201 -8.205109 14.701813c-2.7575378 3.7766113 -4.968048 5.7098694 -6.6315613 5.7997894c-0.5544739 0 -0.8317566 -1.2438965 -0.8317566 -3.731659c0 -13.442932 0.6444092 -25.132431 1.933258 -35.068512c0.6444092 -2.5776825 2.2105103 -8.609772 4.698303 -18.096252c0.91415405 -3.6866913 1.3712463 -8.062775 1.3712463 -13.12822c0 -4.3161163 -0.6893616 -6.474182 -2.0681458 -6.474182c-1.3787537 0 -3.1022034 0.966629 -5.170349 2.899887c-2.0681458 1.9332733 -3.379486 3.401947 -3.93396 4.4060516c-1.1989441 2.3079224 -2.5327454 12.438843 -4.001404 30.392715c-3.5967712 -2.5776825 -7.051178 -3.8665314 -10.36319 -3.8665314c-6.8189087 0 -12.326477 2.8549347 -16.522675 8.564819c-1.4069824 1.9213257 -2.5772095 3.941925 -3.5107117 6.0618134l0 0c-0.5962219 0.3731842 -1.3098755 0.81785583 -2.1410522 1.3340454c-1.423706 0.8692169 -3.9789124 1.9032898 -7.665619 3.1022186c-0.089904785 -6.084549 -1.6560059 -11.015106 -4.6982727 -14.791733c-3.0422668 -3.7766113 -6.3392944 -5.664917 -9.891113 -5.664917c-3.5368347 0 -6.5940857 0.92167664 -9.171783 2.76503c-5.7098694 0 -10.385651 2.720047 -14.027405 8.1601715c-1.1406555 1.7062683 -2.1019287 3.4473724 -2.88385 5.2233276l0 0c-0.5527344 0.3455963 -1.1981506 0.7475586 -1.9361572 1.2059021c-1.423706 0.8692169 -3.9789124 1.9032898 -7.665619 3.1022186c-0.089904785 -6.084549 -1.6560059 -11.015106 -4.6982727 -14.791733c-3.0422668 -3.7766113 -6.339325 -5.664917 -9.891113 -5.664917c-3.5368347 0 -6.5940857 0.92167664 -9.171783 2.76503c-5.7098694 0 -10.385681 2.720047 -14.027405 8.1601715c-1.1737671 1.7557983 -2.1575623 3.5484924 -2.951477 5.3780823l0 0c-0.24765015 0.13475037 -0.5053711 0.2753296 -0.7731323 0.42170715c-3.3569946 1.8433533 -7.523239 3.3644714 -12.498795 4.5634003c-1.6485138 -5.155365 -3.4394073 -9.119324 -5.3726807 -11.891815c7.6431427 -12.888428 11.464706 -24.488022 11.464706 -34.798767c0 -6.534134 -1.476181 -9.801201 -4.4285126 -9.801201z" fill-rule="evenodd"></path></g></svg>

